<svg xmlns="http://www.w3.org/2000/svg" width="673.817" height="701.597" viewBox="0 0 673.817 701.597">
  <g id="strawberry" transform="translate(-347 -41.403)">
    <path id="berry" d="M315.5,0h0A315.5,315.5,0,0,1,631,315.5v0A315.5,315.5,0,0,1,315.5,631H126.2A126.2,126.2,0,0,1,0,504.8V315.5A315.5,315.5,0,0,1,315.5,0Z" transform="translate(347 112)" fill="#e94646"/>
    <path id="leaf" d="M498.493,77.687c5.665-25.491,65.549-44.913,150.519-32.37S838.374,127.86,838.374,127.86s51.049-86.229,69.595-72.832,27.514-.4,17.8,22.659-56.647,69.595-56.647,69.595,83.912,43.2,124.623,129.479,31.156,153.756,0,140.808c-13.49-5.606-30.411-11.421-61.567-59.571s-58.934-129.2-58.934-129.2,1.947,63.745-18.688,106.231-47.745,69.595-67.976,59.884-19.826-50.982-12.948-98.728S814.1,203.929,814.1,203.929s-37.63,52.2-87.4,72.832-89.826,27.919-111.675,9.711-9.306-47.745,24.277-82.543,110.057-56.647,110.057-56.647-60.288,17.4-123,0S492.828,103.178,498.493,77.687Z" fill="#6db85b"/>
    <g id="seed">
      <path id="seed-1" d="M416.725,317.992s1.417-18.744,7.41-27.026,14.821-7.737,17.436-3.923-.981,10.9-6.974,19.18S416.725,317.992,416.725,317.992Z" fill="#fff"/>
      <path id="seed-2" d="M416.725,317.992s1.417-18.744,7.41-27.026,14.821-7.737,17.436-3.923-.981,10.9-6.974,19.18S416.725,317.992,416.725,317.992Z" fill="#fff"/>
      <path id="seed-3" d="M416.725,317.992s1.417-18.744,7.41-27.026,14.821-7.737,17.436-3.923-.981,10.9-6.974,19.18S416.725,317.992,416.725,317.992Z" transform="translate(111 10)" fill="#fff"/>
      <path id="seed-4" d="M416.725,317.992s1.417-18.744,7.41-27.026,14.821-7.737,17.436-3.923-.981,10.9-6.974,19.18S416.725,317.992,416.725,317.992Z" transform="translate(260.46 -223.449) rotate(19)" fill="#fff"/>
      <path id="seed-5" d="M416.725,317.992s1.417-18.744,7.41-27.026,14.821-7.737,17.436-3.923-.981,10.9-6.974,19.18S416.725,317.992,416.725,317.992Z" transform="translate(260.46 -223.449) rotate(19)" fill="#fff"/>
      <path id="seed-6" d="M416.725,317.992s1.417-18.744,7.41-27.026,14.821-7.737,17.436-3.923-.981,10.9-6.974,19.18S416.725,317.992,416.725,317.992Z" transform="translate(29 108)" fill="#fff"/>
      <path id="seed-7" d="M416.725,317.992s1.417-18.744,7.41-27.026,14.821-7.737,17.436-3.923-.981,10.9-6.974,19.18S416.725,317.992,416.725,317.992Z" transform="translate(-23 244)" fill="#fff"/>
      <path id="seed-8" d="M416.725,317.992s1.417-18.744,7.41-27.026,14.821-7.737,17.436-3.923-.981,10.9-6.974,19.18S416.725,317.992,416.725,317.992Z" transform="translate(89 221)" fill="#fff"/>
      <path id="seed-9" d="M416.725,317.992s1.417-18.744,7.41-27.026,14.821-7.737,17.436-3.923-.981,10.9-6.974,19.18S416.725,317.992,416.725,317.992Z" transform="translate(25.712 344)" fill="#fff"/>
      <path id="seed-10" d="M416.725,317.992s1.417-18.744,7.41-27.026,14.821-7.737,17.436-3.923-.981,10.9-6.974,19.18S416.725,317.992,416.725,317.992Z" transform="matrix(0.899, 0.438, -0.438, 0.899, 332.134, 193.166)" fill="#fff"/>
      <path id="seed-11" d="M416.725,317.992s1.417-18.744,7.41-27.026,14.821-7.737,17.436-3.923-.981,10.9-6.974,19.18S416.725,317.992,416.725,317.992Z" transform="matrix(0.899, 0.438, -0.438, 0.899, 458.134, 172.424)" fill="#fff"/>
      <path id="seed-12" d="M416.725,317.992s1.417-18.744,7.41-27.026,14.821-7.737,17.436-3.923-.981,10.9-6.974,19.18S416.725,317.992,416.725,317.992Z" transform="matrix(0.999, 0.052, -0.052, 0.999, 443.979, 225.865)" fill="#fff"/>
      <path id="seed-13" d="M416.725,322.689s1.479-21.363,7.737-30.8,15.474-8.818,18.2-4.471-1.024,12.42-7.282,21.859S416.725,322.689,416.725,322.689Z" transform="matrix(0.999, 0.052, -0.052, 0.999, 471.661, 85.175)" fill="#fff"/>
      <path id="seed-14" d="M416.725,322.689s1.479-21.363,7.737-30.8,15.474-8.818,18.2-4.471-1.024,12.42-7.282,21.859S416.725,322.689,416.725,322.689Z" transform="matrix(0.999, 0.052, -0.052, 0.999, 360.23, 176.724)" fill="#fff"/>
      <path id="seed-15" d="M416.725,322.689s1.479-21.363,7.737-30.8,15.474-8.818,18.2-4.471-1.024,12.42-7.282,21.859S416.725,322.689,416.725,322.689Z" transform="matrix(0.999, 0.052, -0.052, 0.999, 303.052, 63.724)" fill="#fff"/>
      <path id="seed-16" d="M416.725,317.992s1.417-18.744,7.41-27.026,14.821-7.737,17.436-3.923-.981,10.9-6.974,19.18S416.725,317.992,416.725,317.992Z" transform="translate(149 121)" fill="#fff"/>
      <path id="seed-17" d="M416.725,317.992s1.417-18.744,7.41-27.026,14.821-7.737,17.436-3.923-.981,10.9-6.974,19.18S416.725,317.992,416.725,317.992Z" transform="translate(209 221)" fill="#fff"/>
      <path id="seed-18" d="M416.725,317.992s1.417-18.744,7.41-27.026,14.821-7.737,17.436-3.923-.981,10.9-6.974,19.18S416.725,317.992,416.725,317.992Z" transform="translate(209 51)" fill="#fff"/>
    </g>
  </g>
</svg>
